<svg width="128" height="39" viewBox="0 0 128 39" fill="none" xmlns="http://www.w3.org/2000/svg">
<path d="M1.52625 18V6.432H5.44075C6.26608 6.432 7.00217 6.57088 7.649 6.84863C8.29583 7.12638 8.80438 7.53713 9.17463 8.08088C9.54487 8.62462 9.73 9.29417 9.73 10.0895C9.73 10.8592 9.55762 11.5147 9.21288 12.0561C8.86813 12.5975 8.38904 13.0105 7.77563 13.2951C7.16221 13.5797 6.45075 13.722 5.64125 13.722H3.0475V18H1.52625ZM3.0365 12.473H5.60825C6.40192 12.473 7.04667 12.2509 7.5425 11.8067C8.03833 11.3626 8.28625 10.7613 8.28625 10.003C8.28625 9.2355 8.03071 8.65396 7.51963 8.25838C7.00854 7.86279 6.34692 7.665 5.53475 7.665H3.0365V12.473ZM11.7103 18V6.432H16.1918C17.0264 6.432 17.7228 6.55883 18.281 6.8125C18.8392 7.06617 19.2578 7.42883 19.5369 7.9005C19.816 8.37217 19.9555 8.93633 19.9555 9.593C19.9555 10.22 19.8445 10.742 19.6224 11.1589C19.4003 11.5758 19.1178 11.9112 18.7749 12.1652C18.432 12.4192 18.0766 12.6153 17.7088 12.7535L19.9823 18H18.4125L16.302 13.0185H13.1895V18H11.7103ZM13.1895 11.7905H15.7137C16.5828 11.7905 17.2543 11.613 17.7283 11.2581C18.2023 10.9032 18.4392 10.3763 18.4392 9.6775C18.4392 8.9975 18.2279 8.48858 17.8051 8.15075C17.3824 7.81292 16.8007 7.644 16.0602 7.644H13.1895V11.7905ZM26.7397 18.16C25.7086 18.16 24.8167 17.9282 24.0642 17.4647C23.3117 17.0013 22.7315 16.3286 22.3236 15.4467C21.9157 14.5649 21.7117 13.496 21.7117 12.24C21.7117 10.9752 21.9171 9.89871 22.3277 9.01062C22.7384 8.12254 23.3205 7.44408 24.0739 6.97525C24.8273 6.50642 25.7159 6.272 26.7397 6.272C27.7617 6.272 28.6459 6.50554 29.3922 6.97262C30.1386 7.43971 30.714 8.11729 31.1185 9.00537C31.523 9.89346 31.7252 10.9717 31.7252 12.24C31.7252 13.4942 31.5244 14.5617 31.1226 15.4427C30.7209 16.3238 30.1468 16.9969 29.4005 17.4621C28.6542 17.9274 27.7672 18.16 26.7397 18.16ZM26.7397 16.8715C27.4534 16.8715 28.0609 16.7084 28.5622 16.3821C29.0636 16.0559 29.4457 15.5516 29.7085 14.8693C29.9713 14.1869 30.1027 13.316 30.1027 12.2565C30.1027 11.1773 29.9696 10.292 29.7032 9.60063C29.4369 8.90921 29.0531 8.39633 28.5517 8.062C28.0504 7.72767 27.4464 7.5605 26.7397 7.5605C26.0331 7.5605 25.4265 7.72854 24.9199 8.06462C24.4133 8.40071 24.0237 8.91533 23.7512 9.6085C23.4787 10.3017 23.3425 11.1843 23.3425 12.2565C23.3425 13.3195 23.4787 14.1913 23.7512 14.8719C24.0237 15.5525 24.4133 16.0559 24.9199 16.3821C25.4265 16.7084 26.0331 16.8715 26.7397 16.8715ZM34.9195 18.16C34.5102 18.16 34.1255 18.1121 33.7655 18.0162C33.4055 17.9204 33.165 17.8485 33.044 17.8005L33.149 16.3865C33.314 16.4445 33.5047 16.5178 33.7211 16.6065C33.9375 16.6952 34.2072 16.7395 34.53 16.7395C35.0532 16.7395 35.4115 16.5947 35.6051 16.305C35.7987 16.0153 35.8955 15.5298 35.8955 14.8485V6.432H37.3775V15.2705C37.3775 15.8858 37.3078 16.4088 37.1685 16.8394C37.0292 17.27 36.782 17.5977 36.4269 17.8226C36.0718 18.0475 35.5693 18.16 34.9195 18.16ZM40.1262 18V6.432H47.4207L47.4152 7.7375H41.6137V11.516H46.8397V12.81H41.6055V16.668L47.5732 16.6785V18H40.1262ZM54.2843 18.16C53.2466 18.16 52.3612 17.9231 51.6281 17.4494C50.895 16.9756 50.335 16.2932 49.9481 15.4021C49.5612 14.511 49.3678 13.4368 49.3678 12.1795C49.3678 10.9222 49.5603 9.85404 49.9454 8.97513C50.3305 8.09621 50.8895 7.42596 51.6226 6.96437C52.3557 6.50279 53.2429 6.272 54.2843 6.272C55.1001 6.272 55.8234 6.4415 56.4543 6.7805C57.0851 7.1195 57.5921 7.57179 57.9754 8.13737C58.3586 8.70296 58.5859 9.323 58.6573 9.9975H57.0788C56.9921 9.54567 56.8294 9.13571 56.5906 8.76762C56.3519 8.39954 56.0375 8.10633 55.6476 7.888C55.2577 7.66967 54.7913 7.5605 54.2485 7.5605C53.5477 7.5605 52.956 7.72396 52.4735 8.05087C51.991 8.37779 51.6255 8.88325 51.3769 9.56725C51.1283 10.2512 51.004 11.1275 51.004 12.196C51.004 13.8033 51.2808 14.9844 51.8345 15.7392C52.3882 16.4941 53.1928 16.8715 54.2485 16.8715C54.7913 16.8715 55.2577 16.7563 55.6476 16.526C56.0375 16.2957 56.3519 15.9896 56.5906 15.6077C56.8294 15.2259 56.9921 14.8091 57.0788 14.3572H58.6573C58.5983 14.8496 58.4662 15.324 58.2611 15.7804C58.056 16.2368 57.7752 16.6437 57.4185 17.0011C57.0618 17.3585 56.6232 17.641 56.1026 17.8486C55.582 18.0562 54.9759 18.16 54.2843 18.16ZM63.3347 18V7.7925H59.6032V6.432H68.3545V7.7925H64.822V18H63.3347ZM73.276 18L77.4612 6.432H79.1385L83.3185 18H81.811L80.6702 14.836H75.9302L74.784 18H73.276ZM76.3185 13.4715H80.2655L78.2947 7.88025L76.3185 13.4715ZM85.5022 18L85.5127 6.432H87.0235V16.6685H92.4875V18H85.5022ZM94.7423 18V6.432H98.6568C99.4821 6.432 100.218 6.57088 100.865 6.84863C101.512 7.12638 102.02 7.53713 102.391 8.08088C102.761 8.62462 102.946 9.29417 102.946 10.0895C102.946 10.8592 102.774 11.5147 102.429 12.0561C102.084 12.5975 101.605 13.0105 100.992 13.2951C100.378 13.5797 99.6668 13.722 98.8573 13.722H96.2635V18H94.7423ZM96.2525 12.473H98.8243C99.6179 12.473 100.263 12.2509 100.759 11.8067C101.254 11.3626 101.502 10.7613 101.502 10.003C101.502 9.2355 101.247 8.65396 100.736 8.25838C100.225 7.86279 99.5629 7.665 98.7508 7.665H96.2525V12.473ZM104.926 18V6.432H106.406V11.362H112.65V6.432H114.129V18H112.65V12.667H106.406V18H104.926ZM116.316 18L120.501 6.432H122.178L126.358 18H124.851L123.71 14.836H118.97L117.824 18H116.316ZM119.358 13.4715H123.305L121.335 7.88025L119.358 13.4715Z" fill="#041627"/>
<path d="M3.40359 35.1C3.05214 35.1 2.71742 35.0572 2.39945 34.9715C2.08148 34.8858 1.79352 34.7584 1.53555 34.5891C1.27758 34.4199 1.06503 34.2097 0.897891 33.9586C0.730755 33.7074 0.624531 33.4153 0.579219 33.0822H1.54859C1.60932 33.355 1.72859 33.5842 1.90641 33.7698C2.08422 33.9555 2.30612 34.0955 2.57211 34.1901C2.8381 34.2846 3.12901 34.3319 3.44484 34.3319C3.75245 34.3319 4.03547 34.2832 4.29391 34.1858C4.55234 34.0884 4.75979 33.9474 4.91625 33.7627C5.07271 33.5781 5.15094 33.3555 5.15094 33.0948C5.15094 32.8083 5.05716 32.5772 4.86961 32.4015C4.68206 32.2258 4.39339 32.0857 4.00359 31.9811L2.51594 31.597C2.17781 31.5138 1.87948 31.3961 1.62094 31.244C1.3624 31.0918 1.16049 30.8915 1.01523 30.643C0.869974 30.3946 0.797344 30.085 0.797344 29.7144C0.797344 29.3065 0.909922 28.9497 1.13508 28.6441C1.36023 28.3384 1.66729 28.1014 2.05625 27.9328C2.44521 27.7643 2.88427 27.68 3.37344 27.68C3.94219 27.68 4.42005 27.7783 4.80703 27.9749C5.19401 28.1715 5.48779 28.4295 5.68836 28.7488C5.88893 29.068 5.98984 29.4105 5.99109 29.7763H5.03891C5.00797 29.4464 4.91138 29.1854 4.74914 28.9933C4.5869 28.8012 4.38396 28.6629 4.14031 28.5784C3.89667 28.4938 3.63146 28.4516 3.34469 28.4516C2.82719 28.4516 2.43607 28.5685 2.17133 28.8023C1.90659 29.0362 1.77422 29.3161 1.77422 29.6422C1.77422 29.9387 1.86948 30.1718 2.06 30.3413C2.25052 30.5109 2.53026 30.6425 2.89922 30.7362L4.35156 31.1081C4.78052 31.2078 5.12247 31.3527 5.37742 31.5429C5.63237 31.733 5.81573 31.9541 5.9275 32.2059C6.03927 32.4578 6.09516 32.7301 6.09516 33.0227C6.09516 33.4227 5.98339 33.7793 5.75984 34.0927C5.5363 34.406 5.22346 34.6522 4.82133 34.8313C4.41919 35.0104 3.94661 35.1 3.40359 35.1ZM8.61891 35V27.77H9.54344V35H8.61891ZM14.0592 35V28.6203H11.727V27.77H17.1966V28.6203H14.9887V35H14.0592ZM19.3839 35V27.77H23.943L23.9395 28.5859H20.3136V30.9475H23.5798V31.7562H20.3084V34.1675L24.0383 34.1741V35H19.3839ZM30.0189 35V27.77H31.3011L33.4817 33.7419L35.692 27.77H36.9642V35H36.0117V29.1562L33.9127 35H33.0508L30.9697 29.2088V35H30.0189ZM39.3325 35L41.9483 27.77H42.9966L45.6091 35H44.6669L43.9539 33.0225H40.9914L40.275 35H39.3325ZM41.2341 32.1697H43.7009L42.4692 28.6752L41.2341 32.1697ZM47.9739 35V27.77H48.8577L52.6817 33.3881V27.77H53.6063V35H52.7798L48.8984 29.2988V35H47.9739ZM55.9725 35L58.5883 27.77H59.6366L62.2491 35H61.3069L60.5939 33.0225H57.6314L56.915 35H55.9725ZM57.8741 32.1697H60.3409L59.1092 28.6752L57.8741 32.1697ZM66.9188 35.1C66.2846 35.1 65.7376 34.9546 65.2779 34.6637C64.8182 34.3728 64.4652 33.952 64.2191 33.4014C63.9729 32.8508 63.8498 32.1848 63.8498 31.4034C63.8498 30.6184 63.9761 29.9473 64.2285 29.39C64.481 28.8327 64.8402 28.4067 65.3063 28.112C65.7723 27.8173 66.3235 27.67 66.96 27.67C67.3242 27.67 67.6662 27.7335 67.9862 27.8605C68.3061 27.9874 68.5894 28.1604 68.8359 28.3792C69.0825 28.5981 69.2797 28.8467 69.4274 29.1251C69.5752 29.4035 69.659 29.6946 69.6788 29.9984H68.6905C68.6428 29.7318 68.5391 29.484 68.3795 29.2552C68.2199 29.0263 68.0175 28.842 67.7722 28.7022C67.5269 28.5624 67.2504 28.4925 66.9428 28.4925C66.529 28.4925 66.1643 28.5949 65.8488 28.7998C65.5332 29.0047 65.2878 29.3204 65.1124 29.7467C64.9371 30.1731 64.8494 30.7184 64.8494 31.3828C64.8494 31.8983 64.9029 32.339 65.0098 32.7047C65.1168 33.0704 65.2658 33.3682 65.4567 33.5979C65.6477 33.8276 65.8724 33.9959 66.131 34.1028C66.3896 34.2097 66.6699 34.2631 66.972 34.2631C67.2728 34.2631 67.5356 34.2103 67.7605 34.1047C67.9855 33.9991 68.1736 33.8618 68.3248 33.6929C68.4761 33.524 68.5919 33.3421 68.6721 33.1473C68.7524 32.9524 68.7971 32.7652 68.8063 32.5856L68.8355 31.945H67.0767V31.265L69.7961 31.2719V35H69.1019V33.8981C68.9753 34.1068 68.8147 34.3024 68.6202 34.4851C68.4256 34.6677 68.189 34.8159 67.9104 34.9295C67.6318 35.0432 67.3013 35.1 66.9188 35.1ZM72.5939 35V27.77H77.153L77.1495 28.5859H73.5236V30.9475H76.7898V31.7562H73.5184V34.1675L77.2483 34.1741V35H72.5939ZM79.8639 35V27.77H81.1461L83.3267 33.7419L85.537 27.77H86.8092V35H85.8567V29.1562L83.7577 35H82.8958L80.8147 29.2088V35H79.8639ZM89.7189 35V27.77H94.278L94.2745 28.5859H90.6486V30.9475H93.9148V31.7562H90.6434V34.1675L94.3733 34.1741V35H89.7189ZM96.9889 35V27.77H97.8727L101.697 33.3881V27.77H102.621V35H101.795L97.9134 29.2988V35H96.9889ZM107.139 35V28.6203H104.807V27.77H110.277V28.6203H108.069V35H107.139Z" fill="#44474C"/>
</svg>
